<svg xmlns="http://www.w3.org/2000/svg" width="32" height="30" viewBox="0 0 32 30">
  <path
    fill="#00d5ff"
    d="M22.8,7.5c-2.1,0-4.2,1.3-6.8,4.3c-2.6-3-4.7-4.3-6.8-4.3C6,7.5,3.5,9.9,3.5,13s2.5,5.5,5.7,5.5
    c2.1,0,4.2-1.3,6.8-4.3c2.6,3,4.7,4.3,6.8,4.3c3.2,0,5.7-2.4,5.7-5.5S26,7.5,22.8,7.5z M9.2,16.7c-2.1,0-3.7-1.7-3.7-3.7
    s1.7-3.7,3.7-3.7c1.4,0,3.1,1.2,5.2,3.7C12.3,15.5,10.6,16.7,9.2,16.7z M22.8,16.7c-1.4,0-3.1-1.2-5.2-3.7c2.1-2.5,3.8-3.7,5.2-3.7
    c2.1,0,3.7,1.7,3.7,3.7S24.9,16.7,22.8,16.7z"
    transform="translate(0,6)"
  />
</svg>
